<svg xmlns="http://www.w3.org/2000/svg" viewBox="0 0 64 64">
  <rect width="64" height="64" rx="16" fill="#0d1117"/>
  <ellipse cx="32" cy="38" rx="20" ry="16" fill="#ff7aa8"/>
  <ellipse cx="24" cy="24" rx="10" ry="10" fill="#ff8fb6"/>
  <ellipse cx="40" cy="24" rx="10" ry="10" fill="#ff8fb6"/>
  <ellipse cx="18" cy="36" rx="8" ry="9" fill="#ff94bb"/>
  <ellipse cx="46" cy="36" rx="8" ry="9" fill="#ff94bb"/>
  <path d="M32 18v30" stroke="#d94d84" stroke-width="2.5" stroke-linecap="round"/>
  <path d="M24 17c3 2 4 5 4 8s-2 5-5 7c-3 2-4 5-4 8" fill="none" stroke="#d94d84" stroke-width="2.5" stroke-linecap="round"/>
  <path d="M40 17c-3 2-4 5-4 8s2 5 5 7c3 2 4 5 4 8" fill="none" stroke="#d94d84" stroke-width="2.5" stroke-linecap="round"/>
  <path d="M14 35c3-1 6 0 8 2" fill="none" stroke="#d94d84" stroke-width="2.5" stroke-linecap="round"/>
  <path d="M50 35c-3-1-6 0-8 2" fill="none" stroke="#d94d84" stroke-width="2.5" stroke-linecap="round"/>
  <circle cx="25" cy="40" r="2.5" fill="#ffffff"/>
  <circle cx="39" cy="40" r="2.5" fill="#ffffff"/>
  <circle cx="25" cy="40" r="1.2" fill="#0d1117"/>
  <circle cx="39" cy="40" r="1.2" fill="#0d1117"/>
  <path d="M26 49c2 2 4 3 6 3s4-1 6-3" fill="none" stroke="#ffffff" stroke-width="2.5" stroke-linecap="round"/>
  <path d="M20 53c4 3 8 4 12 4s8-1 12-4" fill="none" stroke="#4da8da" stroke-width="2" stroke-linecap="round" opacity="0.8"/>
</svg>
